<!DOCTYPE svg PUBLIC "-//W3C//DTD SVG 20010904//EN" "http://www.w3.org/TR/2001/REC-SVG-20010904/DTD/svg10.dtd">
<svg version="1.0" xmlns="http://www.w3.org/2000/svg" width="360px" height="360px" viewBox="0 0 3600 3600" preserveAspectRatio="xMidYMid meet">
<g id="layer101" fill="#ffffff" stroke="none">
 <path d="M1525 2840 c-256 -13 -392 -38 -496 -92 -92 -48 -162 -135 -175 -219 l-6 -37 -77 -12 c-326 -54 -515 -123 -626 -231 -90 -87 -135 -202 -135 -344 0 -91 15 -125 55 -125 37 0 53 35 58 126 11 169 56 247 182 311 99 49 144 66 240 88 39 9 88 20 110 25 223 53 681 85 1200 85 344 0 449 -4 720 -26 391 -32 663 -107 767 -211 49 -49 73 -102 88 -193 14 -84 32 -115 65 -115 52 0 67 64 40 175 -23 99 -54 156 -121 223 -103 102 -243 159 -528 212 -59 11 -122 20 -140 20 -43 0 -54 9 -80 66 -43 92 -134 163 -267 207 -149 50 -561 82 -874 67z m640 -149 c156 -25 239 -47 297 -78 47 -26 106 -79 97 -88 -3 -3 -73 0 -155 5 -317 20 -1086 10 -1361 -19 -83 -8 -88 -3 -51 52 43 67 134 105 314 131 154 23 188 24 479 20 192 -3 291 -9 380 -23z"/>
 <path d="M318 1839 c-25 -14 -22 -51 11 -157 l29 -93 -47 43 c-25 23 -50 48 -54 55 -4 7 -14 13 -21 13 -13 0 -36 -41 -36 -64 0 -12 90 -116 176 -202 45 -45 81 -57 116 -40 31 16 35 73 9 155 l-20 64 52 -50 c59 -57 85 -73 120 -73 36 0 65 28 86 85 15 40 24 50 43 50 25 0 89 -66 161 -167 45 -64 95 -91 123 -67 18 14 16 27 -15 138 -21 76 -28 151 -13 151 13 0 50 -42 101 -117 40 -58 52 -68 80 -71 42 -4 61 12 61 54 0 18 5 45 10 59 8 21 14 25 33 20 31 -10 98 -85 168 -190 l60 -90 -73 -5 c-40 -3 -79 -9 -85 -13 -16 -10 -17 -71 -3 -98 10 -17 22 -19 114 -19 l104 0 21 -45 c26 -55 61 -81 89 -66 18 10 20 22 21 108 0 117 -3 129 -33 137 -20 5 -27 21 -55 124 -17 65 -34 140 -37 166 -8 54 -9 53 51 12 17 -12 32 -21 35 -21 7 -1 60 -55 103 -105 22 -26 33 -48 30 -59 -6 -22 29 -58 75 -77 38 -17 68 -5 114 43 50 52 63 135 32 208 -20 48 -11 56 24 22 16 -15 34 -27 41 -27 8 0 47 -34 89 -76 80 -81 106 -92 142 -59 10 9 22 31 25 49 26 137 35 147 87 107 14 -11 31 -21 38 -23 7 -2 41 -33 76 -70 44 -46 64 -75 64 -93 0 -30 29 -62 77 -81 32 -14 37 -13 69 7 81 50 112 141 80 235 -9 26 -14 50 -11 52 3 3 18 -7 34 -22 16 -15 35 -28 44 -30 23 -3 67 -61 67 -87 0 -39 55 -141 99 -186 49 -49 91 -62 126 -39 29 19 42 55 24 66 -10 7 -10 11 0 24 18 22 -14 88 -77 157 -54 59 -59 82 -20 93 12 3 45 -3 74 -14 l53 -18 15 36 15 37 -37 32 c-50 44 -129 67 -182 53 -32 -9 -44 -19 -60 -50 -24 -47 -21 -48 -149 38 -97 65 -136 76 -165 46 -20 -20 -20 -16 9 -99 26 -73 34 -175 14 -175 -6 0 -49 36 -96 80 -46 44 -89 80 -94 80 -6 0 -29 15 -52 34 -59 47 -80 56 -130 56 -50 0 -64 -12 -97 -82 -24 -53 -38 -58 -65 -28 -10 11 -21 20 -25 20 -4 0 -50 29 -104 65 -103 69 -140 79 -170 46 -16 -18 -16 -22 4 -77 39 -110 46 -194 16 -194 -6 0 -47 36 -91 80 -44 44 -86 80 -94 80 -8 0 -49 34 -92 75 -57 56 -84 75 -104 75 -42 0 -64 -17 -71 -56 -6 -32 9 -149 24 -194 3 -8 -20 9 -50 38 -56 54 -161 112 -204 112 -25 0 -66 -33 -76 -61 -4 -10 -25 6 -69 52 -69 71 -105 87 -149 64 -30 -15 -50 -53 -50 -93 0 -15 -4 -33 -9 -41 -7 -11 -11 -9 -20 8 -7 11 -18 21 -25 21 -7 0 -30 14 -51 30 -25 20 -49 30 -70 30 -34 0 -35 -1 -103 -90 -30 -39 -38 -34 -150 80 -87 89 -122 109 -154 89z"/>
 <path d="M2282 1318 c-7 -7 -12 -28 -12 -47 0 -28 8 -42 47 -78 63 -59 113 -69 130 -27 11 29 -25 121 -56 144 -32 22 -90 27 -109 8z"/>
 </g>

</svg>