<!DOCTYPE svg PUBLIC "-//W3C//DTD SVG 20010904//EN" "http://www.w3.org/TR/2001/REC-SVG-20010904/DTD/svg10.dtd">
<svg version="1.0" xmlns="http://www.w3.org/2000/svg" width="360px" height="360px" viewBox="0 0 3600 3600" preserveAspectRatio="xMidYMid meet">
<g id="layer101" fill="#ffffff" stroke="none">
 <path d="M1635 2993 c-144 -6 -309 -24 -354 -37 -25 -8 -72 -20 -105 -27 -32 -7 -60 -18 -63 -25 -2 -7 -21 -19 -41 -27 -42 -17 -111 -92 -142 -152 -11 -22 -26 -67 -32 -101 l-12 -60 -70 -16 c-185 -42 -252 -59 -268 -68 -10 -5 -23 -10 -29 -10 -23 0 -215 -101 -258 -136 -139 -112 -201 -266 -201 -499 0 -119 12 -150 55 -150 42 0 53 30 59 155 10 195 52 285 170 371 21 16 47 29 56 29 9 0 24 8 34 18 9 11 35 25 59 32 23 8 47 17 53 22 7 5 46 15 89 23 42 8 91 21 109 29 33 15 229 46 293 46 22 0 43 4 48 9 29 27 1025 50 1260 29 44 -4 130 -10 190 -14 61 -3 115 -10 120 -14 6 -4 42 -10 80 -13 117 -9 218 -28 260 -47 22 -10 66 -24 98 -30 31 -6 57 -16 57 -21 0 -5 8 -9 18 -9 10 0 42 -15 72 -34 142 -89 179 -147 210 -335 21 -121 30 -141 65 -141 54 0 74 68 55 188 -17 107 -46 186 -96 262 -68 103 -105 134 -249 208 -65 33 -86 41 -165 62 -41 10 -101 26 -132 35 -32 8 -90 19 -130 23 l-72 7 -26 66 c-33 86 -69 134 -160 213 -8 7 -30 18 -49 25 -19 6 -42 18 -50 25 -9 8 -54 22 -101 30 -47 9 -98 21 -115 26 -57 17 -452 40 -590 33z m510 -183 c44 -8 82 -17 85 -20 3 -3 39 -11 80 -18 41 -7 98 -24 128 -39 53 -26 142 -103 142 -123 0 -7 -45 -8 -142 -3 -403 22 -1368 2 -1405 -29 -20 -16 -16 24 5 63 18 33 71 88 85 89 5 0 20 9 34 20 14 11 47 23 74 26 27 4 49 10 49 14 0 4 46 12 103 19 56 7 109 14 117 16 44 9 574 -4 645 -15z"/>
 <path d="M1055 2243 c-11 -3 -32 -16 -46 -30 -23 -21 -29 -39 -39 -119 -9 -67 -10 -102 -2 -121 15 -39 62 -197 79 -263 19 -74 38 -144 57 -210 27 -88 46 -162 56 -208 5 -23 13 -50 18 -60 17 -32 33 -114 27 -133 -10 -30 -57 -24 -102 13 -22 18 -59 58 -84 88 -24 30 -108 118 -186 196 -79 78 -143 149 -143 158 0 14 -46 53 -54 45 -8 -9 -106 -244 -106 -253 0 -22 58 -97 150 -193 52 -54 140 -154 195 -223 55 -68 127 -155 161 -194 33 -39 98 -118 144 -176 121 -151 196 -222 272 -258 169 -80 295 -44 339 98 10 34 19 78 19 98 0 46 -32 215 -61 319 -12 43 -25 96 -30 118 -5 22 -13 51 -18 65 -4 14 -16 52 -26 85 -27 92 -51 163 -79 234 -27 66 -34 121 -16 121 5 0 27 -24 49 -52 21 -29 58 -71 81 -93 23 -22 55 -60 71 -84 15 -24 48 -64 71 -90 24 -25 64 -70 88 -100 58 -70 151 -160 198 -189 141 -89 267 -121 345 -89 109 46 151 108 217 322 60 195 78 239 114 283 22 25 35 32 65 32 20 0 47 -7 59 -16 48 -33 63 -19 116 115 l50 124 -35 30 c-19 16 -68 60 -110 98 -159 144 -231 171 -343 132 -78 -28 -142 -98 -208 -228 -31 -60 -88 -152 -127 -204 -39 -52 -71 -98 -71 -102 0 -5 -8 -13 -18 -18 -20 -10 -103 21 -132 51 -29 28 -176 154 -225 193 -44 34 -67 57 -104 101 -5 6 -11 19 -15 30 -3 10 -19 33 -34 50 -15 18 -45 53 -67 79 -201 240 -317 361 -385 402 -35 21 -136 36 -175 26z"/>
 </g>

</svg>